<?xml version="1.0" encoding="UTF-8" standalone="no"?>
<!DOCTYPE svg PUBLIC "-//W3C//DTD SVG 20010904//EN" "http://www.w3.org/TR/2001/REC-SVG-20010904/DTD/svg10.dtd">

<svg xmlns="http://www.w3.org/2000/svg"
   width="1.66667in" height="1.24667in"
   viewBox="0 0 500 374">
   <path id="Selection"
      fill="#9a9f78"
      d="M 186.00,0.00
           C 186.00,0.00 270.00,0.00 270.00,0.00
             270.00,0.00 270.00,102.00 270.00,102.00
             270.00,102.00 270.00,133.00 270.00,133.00
             270.00,133.00 271.00,151.00 271.00,151.00
             274.12,145.86 281.71,137.79 285.80,133.00
             285.80,133.00 310.56,103.58 310.56,103.58
             310.56,103.58 318.73,93.28 318.73,93.28
             318.73,93.28 350.29,55.83 350.29,55.83
             350.29,55.83 368.15,34.00 368.15,34.00
             368.15,34.00 386.83,11.58 386.83,11.58
             390.00,7.97 391.50,4.67 396.00,2.28
             400.23,0.02 404.37,0.01 409.00,0.00
             409.00,0.00 492.00,0.00 492.00,0.00
             490.48,5.16 484.09,12.12 480.50,16.28
             480.50,16.28 462.27,39.00 462.27,39.00
             462.27,39.00 446.25,58.83 446.25,58.83
             446.25,58.83 403.81,109.09 403.81,109.09
             403.81,109.09 398.64,115.83 398.64,115.83
             398.64,115.83 371.74,148.00 371.74,148.00
             369.43,151.04 363.61,157.48 363.34,161.00
             363.02,165.39 368.54,172.28 370.86,176.04
             370.86,176.04 379.96,189.00 379.96,189.00
             379.96,189.00 396.72,213.00 396.72,213.00
             396.72,213.00 423.94,252.83 423.94,252.83
             423.94,252.83 446.97,285.00 446.97,285.00
             446.97,285.00 470.79,319.83 470.79,319.83
             470.79,319.83 489.51,346.83 489.51,346.83
             493.86,352.73 499.15,358.46 500.00,366.00
             500.00,366.00 421.00,366.00 421.00,366.00
             407.05,365.97 405.60,362.30 398.26,352.09
             398.26,352.09 385.92,334.58 385.92,334.58
             385.92,334.58 369.19,310.17 369.19,310.17
             369.19,310.17 341.38,270.00 341.38,270.00
             341.38,270.00 307.00,219.00 307.00,219.00
             300.83,222.96 290.96,235.01 285.87,241.00
             279.67,248.29 270.62,257.62 266.77,266.28
             266.77,266.28 258.31,294.00 258.31,294.00
             252.91,309.11 240.01,330.07 227.91,340.49
             215.21,351.42 200.67,360.83 184.91,366.63
             175.12,370.23 148.70,373.98 138.00,374.00
             102.39,374.06 74.87,368.79 46.72,345.55
             41.70,341.41 37.55,337.94 33.18,333.00
             8.52,305.07 0.00,269.39 0.00,233.00
             0.00,233.00 35.00,231.00 35.00,231.00
             35.00,231.00 53.00,230.00 53.00,230.00
             53.00,230.00 82.00,229.00 82.00,229.00
             82.00,245.11 82.39,249.58 87.00,265.00
             88.46,269.90 89.61,274.49 92.21,279.00
             93.82,281.80 95.54,283.51 97.49,286.00
             99.48,288.54 100.58,290.42 103.09,292.63
             104.97,294.28 111.84,299.21 114.09,300.25
             132.00,308.50 156.62,303.89 169.70,288.99
             181.18,275.91 185.97,257.10 186.00,240.00
             186.00,240.00 186.00,0.00 186.00,0.00 Z" />
</svg>