<?xml version="1.0" standalone="no"?>
<!DOCTYPE svg PUBLIC "-//W3C//DTD SVG 20010904//EN"
 "http://www.w3.org/TR/2001/REC-SVG-20010904/DTD/svg10.dtd">
<svg version="1.0" xmlns="http://www.w3.org/2000/svg"
 width="700.000000pt" height="700.000000pt" viewBox="0 0 700.000000 700.000000"
 preserveAspectRatio="xMidYMid meet">
<metadata>
Created by potrace 1.14, written by Peter Selinger 2001-2017
</metadata>
<g transform="translate(0.000000,700.000000) scale(0.100000,-0.100000)"
fill="#000000" stroke="none">
<path d="M2640 5578 c0 -40 -2 -748 -3 -1573 -2 -825 -6 -1511 -10 -1525 -4
-14 -10 -40 -13 -59 -23 -137 -103 -306 -189 -399 -149 -160 -402 -225 -634
-162 -80 21 -151 62 -221 127 -111 104 -187 243 -226 413 -4 19 -8 37 -9 40
-11 45 -23 184 -24 278 l-1 62 -97 -5 c-54 -3 -138 -7 -188 -10 -49 -3 -144
-7 -210 -10 -66 -3 -140 -8 -165 -10 -25 -2 -97 -7 -160 -11 -100 -5 -153 -9
-183 -13 -7 -1 -2 -195 7 -249 3 -15 10 -58 16 -97 14 -87 54 -247 81 -323
189 -529 580 -887 1107 -1013 83 -20 106 -24 192 -35 25 -3 61 -7 80 -9 40 -5
288 -6 340 -1 42 4 117 14 146 20 12 2 39 7 59 10 57 9 189 44 274 73 261 87
577 330 730 563 118 179 205 387 255 610 12 57 25 98 28 90 3 -9 14 5 28 34
23 44 61 94 195 252 111 130 282 311 288 304 2 -3 51 -75 109 -160 192 -284
328 -484 392 -575 34 -49 201 -290 370 -535 170 -245 331 -473 358 -507 48
-61 49 -61 111 -68 34 -3 290 -5 569 -3 l507 3 -62 87 c-34 48 -128 183 -209
300 -213 309 -308 446 -321 463 -17 23 -176 251 -227 326 -30 44 -66 95 -78
112 -25 33 -330 470 -578 827 -78 113 -146 210 -151 215 -9 11 -90 147 -109
183 -11 22 -7 31 48 110 33 48 64 89 67 92 4 3 83 97 176 210 93 113 172 207
175 210 3 3 35 40 70 84 36 43 94 113 130 155 36 42 83 99 105 126 22 28 42
52 45 55 3 3 62 73 130 155 69 83 127 152 130 155 11 11 157 188 190 230 19
25 43 54 52 65 9 11 82 101 161 200 l144 180 -516 3 c-284 2 -544 0 -579 -3
-78 -8 -85 -15 -299 -275 -83 -102 -159 -195 -170 -207 -10 -12 -25 -30 -33
-40 -8 -10 -150 -180 -315 -378 -165 -198 -307 -369 -317 -380 -20 -24 -134
-161 -192 -229 -85 -102 -161 -191 -166 -196 -3 -3 -46 -54 -95 -113 l-90
-108 -3 966 -2 965 -510 0 -510 0 0 -72z"/>
</g>
</svg>
